<svg version="1" xmlns="http://www.w3.org/2000/svg" width="794.667" height="794.667" viewBox="0 0 596.000000 596.000000"><path d="M290.4 120.7c-2.1 2.5-4.5 5.2-5.1 5.9-.7.7-1.3 1.7-1.3 2.3 0 .6-.7 1.1-1.6 1.1-.8 0-1.3.4-1 .9.3.5-.1 1.1-.9 1.5-.8.3-1.5 1.2-1.5 2.1 0 .8-.4 1.5-1 1.5-.5 0-1 .7-1 1.5s-.3 1.5-.8 1.5c-.4 0-2.7 3-5.2 6.7-2.5 3.8-4.7 7-5 7.3-1.1.9-6.4 10.5-6.1 10.9.1.2-.1.7-.6 1-1.6 1-9.2 15.8-8.6 16.5.4.3.1.6-.5.6-.7 0-1.2.4-1.2.9s-.8 2.6-1.7 4.7c-.9 2.2-1.6 4.2-1.5 4.6.1.5-.2.8-.7.8-.5 0-1.1 1.2-1.4 2.7-.3 1.6-1.1 4.1-1.8 5.8-1.5 3.6-1.4 3.3-2.4 7-.4 1.6-1 3.4-1.4 4-.3.5-.7 1.9-.9 3-.6 3.1-1 5-1.3 5-.2 0-.9 4.4-1.1 7.2-.1 1.3-.5 2.3-.8 2.3-.3 0-.6 1-.7 2.2-.2 4.8-1.1 10.7-1.8 11.9-.6.8-.4 1 .4.4 1-.6 1.1-.3.3 1.1-1 2.1-.9 16.4.2 18.2.4.7.2 1.2-.4 1.2-.6 0-.8.4-.5 1 .3.5.8 3.9 1 7.6.3 3.6.7 6.9.9 7.3.2.3.7 2.7 1.1 5.1.7 4.7 1.2 7.1 1.5 8 .1.3.2.8.1 1.2 0 .5.3.8.8.8.4 0 .6 1.1.4 2.4-.3 1.3 0 2.7.6 3 .6.4 1.1 1.7 1.1 3 0 1.2.3 2.6.7 3 .5.4.9 1.2.9 1.7.1.5.2 1 .4 1.1.1.2.3 1 .5 1.8s.7 2.6 1.3 4c.5 1.4 1 2.8 1 3.3.1.4.8 2 1.6 3.5 2.3 4.3 5.6 12.1 5.6 13.2 0 .5.4 1 .9 1 .8 0 2.4 3.7 2.2 5.2-.1.5.4.8 1 .8.5 0 .7.4.4 1-.3.5-.1 1 .4 1 .6 0 1.1.7 1.1 1.5s.5 1.5 1.2 1.5c.6 0 .9.3.5.6-.6.7 10 17.8 15 24 1.8 2.3 3.3 4.6 3.3 5.2 0 .6.3 1.2.8 1.4.4.1 2.3 2.3 4.2 4.8 5.1 6.6 7.2 9 10 11.7 3.5 3.4 3.9 3.7 7.3 7.3l3.1 3.2 2-2.4c9.3-11 13.8-16.7 16.6-20.8.8-1.2 2-2.8 2.5-3.4 1.3-1.4 8.6-12.3 10.4-15.6.7-1.4 2.1-3.9 2.9-5.5.9-1.7 1.8-3.2 2.2-3.5 1.6-1.3 14.6-29.7 15.5-34 .2-.8 1-3.3 1.8-5.5 1.3-3.2 2.8-8.3 4.2-13.5.1-.3.5-2.5.9-5 .5-2.5 1-5.4 1.2-6.5 1.3-6.4 1.7-12.4 1.7-24 0-13.8-.6-19.8-2.9-31-.8-3.9-1.6-7.7-1.8-8.5-.8-4.1-2.9-10.8-4.2-13.7-.8-1.7-1.4-3.6-1.4-4.3 0-.7-.6-2.6-1.4-4.3-1.6-3.5-4.5-10.4-4.6-11.2-.3-1.5-11-21.3-12.7-23.5-.6-.8-1.3-2.2-1.5-3-.2-.8-1.3-2.6-2.5-4-1.3-1.3-2.3-3-2.3-3.7 0-.7-.4-1.3-1-1.3-.5 0-1-.4-1-1 0-.7-5.3-8.4-10.7-15.5-5-6.4-10.5-12.8-14.3-16.5-2.6-2.5-5.3-5.5-6.1-6.7-1.5-2.2-1.5-2.2-5.5 2.4z"/><path d="M168.9 143.9c-.2 1.8-.5 2.4-2.1 6.1-1.6 3.8-5.6 16.2-6.3 19.9-.2 1.2-.7 3.1-1 4.1-.3 1-.8 2.7-1 3.7-.2 1-1.1 4.5-1.9 7.8-1.9 8-3.4 17-4.2 25-.2 2.7-.6 7-.9 9.5-.7 7.3-.4 38.5.5 38.5.1 0 .5 2.5 1.3 9 .9 7.1 5.9 25.1 8 29 .6 1.1 1.2 2.5 1.3 3.1.4 2.3 4.9 11.4 5.6 11.4.5 0 .8.9.8 1.9 0 1.1.3 2.1.8 2.3.4.1 1.8 2.5 3.2 5.1 1.4 2.7 3.3 5.5 4.3 6.4.9.9 1.7 2.2 1.7 3 0 .7.5 1.3 1.1 1.3.5 0 .8.4.5.9-.3.5.1 1.1.9 1.5.8.3 1.5 1.1 1.5 1.8 0 .8.9 2 2 2.8 1.1.8 2 1.7 2 2.1 0 2.7 33.8 36.3 44.5 44.2.5.4 2.1 1.7 3.5 2.8 7.1 6.1 40.7 26.9 43.2 26.9.5 0 1.7-3.4 2.4-7 .2-.9-.7-2.7-1.9-4-2.4-2.7-10.6-13.5-12.2-16.1-.5-.9-2.6-4.1-4.6-7-1.9-3-4.6-7.4-6-9.9-1.3-2.5-2.7-4.7-3-5-1.8-1.5-13.9-27.2-13.9-29.5 0-.8-.3-1.5-.7-1.7-.9-.3-4.1-8.8-4.9-12.7-.3-1.4-.7-2.8-1-3.3-.6-1-1.3-3.5-2.7-10.6-.6-2.8-1.5-5.2-2-5.2-.4 0-.6-.3-.3-.8.2-.4 0-2.9-.5-5.4-1.4-7.5-2.2-15.8-2.3-23.1 0-3.7-.4-6.7-.9-6.7-.4 0-.5-.5-.1-1.2 1.2-1.8 1.1-5.8-.1-5.8-.6 0-.7-.3 0-.8.6-.4 1-2.1 1.1-3.7.1-3.8 1.2-13.2 1.9-16.5.3-1.4.7-3.9.9-5.5.2-1.7.6-3.7 1-4.5.3-.8.8-2.6 1-4 .3-1.4.5-2.5.6-2.5.1 0 .4-.8 1.4-5 .2-1.1 1-3.4 1.6-5 .6-1.7 1.3-3.7 1.5-4.5.8-2.9 3.1-9 3.8-9.6 1.6-1.6.3-3.6-6.2-10.1-3.8-3.7-7.7-7.5-8.8-8.3-7.3-5.9-12.9-10.6-13.1-11.3-.2-.4-.7-.5-1.1-.3-.4.3-2.2-.8-4-2.4-1.8-1.7-3.5-3-3.7-3-.3 0-2-1.1-3.8-2.5-1.8-1.4-3.8-2.5-4.4-2.5-.7 0-1.2-.4-1.2-.9s-.8-1.1-1.7-1.4c-1.8-.6-7.4-3.7-8.3-4.7-1.6-1.7-13-6.9-13.1-6.1zM416.4 144.1c-1.2.4-2.5 1.2-2.9 1.8-.3.6-1.5 1.1-2.6 1.1-1 0-1.9.5-1.9 1 0 .6-1.1 1.5-2.4 1.9-4.1 1.6-20.6 12.3-20.6 13.4 0 .6-.3.8-.6.4-.5-.5-4.4 2.2-17.8 12.7-2.2 1.7-5.4 4.6-7.2 6.3l-3.3 3.2 2.5 6.1c1.3 3.3 2.4 6.6 2.4 7.5 0 .8.5 1.5 1.1 1.5.5 0 .7.5.4 1-.4.6-.1 1.7.5 2.5s.9 1.8.6 2.3c-.3.5.1 1.9.8 3.3.7 1.3 1.1 3 .8 3.7-.2.6.1 1.2.7 1.2s.8.7.5 1.5c-.3.8-.2 2 .2 2.7.5.7 1 2.4 1.2 3.8.4 3.3 1 6.5 1.2 6.5.2 0 .9 7 1.4 14 .3 3.3.5 6.2.6 6.5.6 1.9.4 12.7-.3 13.7-.4.6-.3 1.4.3 1.8.6.3.8 1.1.4 1.6-.3.6-.8 3.2-1 6-.5 5.5-1.2 11.4-1.4 11.4-.3 0-1 4-1.2 7.2-.2 1.8-.7 3.3-1.2 3.3s-.7.3-.4.6c.8.7-3.7 17.1-5.2 18.8-.6.8-1 1.8-.8 2.2.2 1-.9 4.6-2.7 8.9-3.7 8.2-4.8 11.1-4.7 11.7.1.5-.3.8-.9.8-.5 0-.7.4-.4 1 .3.5.1 1-.4 1-.6 0-1 .3-.9.7.4 1.2-8.5 18.3-9.4 18.3-.4 0-.8.6-.8 1.4 0 .8-.6 2.1-1.2 2.8-1.2 1.3-2.1 2.7-5.2 8.2-.6 1.1-1.9 2.9-2.8 4-1 1.1-1.8 2.6-1.8 3.3 0 .8-.4 1.1-1 .8-.5-.3-1 0-1 .8 0 .7-.9 2.3-2 3.5-1.1 1.2-2 2.5-2 3.1 0 .5-.7 1.2-1.6 1.5-.8.3-1.2 1-.9 1.6.3.5.2 1-.3 1s-2 1.7-3.4 3.7c-2.1 3.2-2.3 4.3-1.5 6.8 1.2 3.7 2.7 4.7 4.7 3.2.8-.7 2.5-1.8 3.8-2.5 2.7-1.5 3 .3.3 1.9-1.6 1.1-1.7 1.7-.7 4.8.5 2 1.4 3.9 2 4.3.9.6 3.7-.1 4.6-1.2.3-.3 3.7-2.3 7.5-4.5 3.9-2.1 9-5.2 11.5-6.9 2.5-1.7 4.7-3.1 5-3.1.3 0 3.4-2.2 7-4.8 8.9-6.6 11-8.2 20-15.8 6.3-5.3 16-15 16-15.9 0-.6.5-.8 1-.5.6.3 1 .2 1-.3s1.9-3 4.3-5.5c8.8-9.5 19.2-24.9 25.4-37.7 2-4.1 3.8-8 3.9-8.5.1-.6.9-2.7 1.8-4.8.9-2 1.3-3.7 1-3.7-.4 0-.1-.6.5-1.3.6-.8.8-1.7.4-2-.3-.4-.1-.7.5-.7.7 0 1.1-.3 1-.8-.1-.4.3-3 1-5.7 4.1-16.5 5.1-25.6 5.2-45 .1-13.7-.3-19.5-1.4-21.3-.4-.7-.2-1.2.4-1.2.6 0 .9-.4.5-.9-.3-.6-.8-2.9-1.1-5.3-.2-2.4-.7-5.4-1-6.6-.3-1.3-.7-4.3-1-6.5-.3-2.3-.8-4.9-1.1-5.7-.4-.8-.7-2.2-.8-3 0-.8-.7-3.8-1.4-6.6-.7-2.9-1.3-5.9-1.5-6.8-.1-.8-.5-1.9-.9-2.2-.4-.4-.7-1.4-.7-2.3 0-2.2-6.3-21.5-7.2-21.9-.4-.2-.4-1-.1-1.9.5-1.3.1-1.3-2.7.2-2.8 1.5-3.2 1.5-2.7.2.3-.9.1-1.7-.4-1.9-.5-.2-1.1-1.3-1.2-2.6 0-1.2-.4-2.2-.8-2.2s-.9-.6-1.1-1.4c-.2-.9-.9-1.1-2.4-.5zM98 310c0 .3-2.1.6-4.8.6-9.3.3-16.2.9-16.2 1.6 0 .3-.8.5-1.7.4-.9-.2-4.4.3-7.7 1s-6.4 1-6.8.8c-.4-.3-.8 0-.8.7s-.3 1-.6.7c-.3-.3-2.1-.2-4.1.4-3.4.9-4.5 1.2-9.5 2.3-1.2.2-4.9 1.4-8.2 2.5-3.4 1.1-6.4 1.9-6.7 1.7-.3-.1-1.3.4-2.3 1.2-1.1.9-1.3 1.7-.6 2.6.5.6 2.4 3.8 4.1 7.1 1.8 3.2 5 8.8 7.2 12.4 2.2 3.6 4.5 7.5 5.2 8.7.7 1.3 1.5 2 1.8 1.6.4-.3.7.1.7.9 0 .9.3 1.8.8 2 .4.1 2.1 2.3 3.7 4.8 1.7 2.5 3.5 5.1 4.2 5.8.7.7 2.9 3.4 5 6 6.8 8.4 28.3 29.3 36.5 35.4 2 1.5 4.2 3.4 5 4.1 2.4 2.3 18.1 11.2 25.8 14.6 7.5 3.3 18.2 6.9 23 7.8 1.4.2 4.1.8 6.1 1.3 2 .6 6.3 1.3 9.5 1.7 9.9 1.3 46.5.7 50.4-.7.3-.2.8-.2 1.2-.1.4 0 3.1-.4 6-.9 2.9-.6 6.4-1.3 7.8-1.5 1.4-.3 3.5-.7 4.8-1 1.2-.3 3.1-.7 4.2-.9 5.6-1.3 21.2-5.8 24.1-7l3.3-1.4-3.5-1.8c-1.9-1-4.3-2.3-5.3-2.9-2.6-1.4-3.5-4.1-1.1-3.1 1.5.5 1.6.4.5-.9-.7-.8-1.8-1.5-2.6-1.5-.7 0-2-.7-2.8-1.6-.9-.8-2.5-1.7-3.6-1.9-1.1-.2-2.5-.9-3.2-1.5-1.9-1.6-21.1-14-21.7-14-.4 0-2.3-1.5-4.3-3.3-2-1.7-5.1-4.3-6.9-5.7-6.8-5.2-12.6-10.5-20.2-18.4-10.2-10.6-11.3-11.9-14.3-16.3-1.4-2.1-2.8-4-3.2-4.3-1-.7-5.2-6.8-5.2-7.5 0-.4-1.3-2.5-2.9-4.8-1.5-2.3-3.1-5.2-3.5-6.5-.4-1.2-1.2-2.2-1.7-2.2s-.9-.9-.9-2.1c0-1.3-1-2.3-3-3.1-2.8-.9-5.4-3.9-5.5-6.3 0-.5-1.3-1.4-3-1.9-1.6-.5-3.7-1.1-4.5-1.4-.8-.3-2.5-.7-3.7-.9-1.3-.1-3.5-.5-5-.7-1.6-.2-2.8-.5-2.8-.6 0-.4-4.7-1-10.8-1.4-3.7-.2-7-.6-7.4-.9-.3-.4-1.5-.1-2.6.4-1.1.6-2.2.7-2.6.3-.6-.9-13.1-1.3-13.1-.4z"/><path d="M480.7 309.6c-.1.1-5.1.4-11.2.8-10.8.6-13 .9-19 2.1-1.6.4-3.9.7-5 .7-1.1.1-2.4.5-3 .9-.5.4-2.5 1-4.3 1.4-1.8.3-3 1.1-2.6 1.6.3.5.1.9-.5.9-.5 0-1.9 2.1-3.2 4.7-1.2 2.7-3.7 6.9-5.6 9.6-1.8 2.6-3.3 5-3.3 5.3 0 .3-1 1.9-2.2 3.4-4.4 5.4-6.6 8.5-6.7 9.2-.1.8-5 6.1-17.1 18.3-8.6 8.7-12.2 12.1-18.5 17.1-2.7 2.1-5.5 4.3-6.1 4.9-.6.5-2.2 1.7-3.4 2.5-1.2.8-2.8 2-3.4 2.5-1.9 1.9-10.6 7.6-10.6 7.1 0-.3-1.1.5-2.4 1.7-1.3 1.3-3.7 2.9-5.3 3.7-1.5.8-4.6 2.6-6.8 3.9-2.2 1.4-4.3 2.4-4.7 2.3-.5-.1-.8.2-.8.7 0 .5-1.6 1.5-3.5 2.1-2.8.9-3.2 1.4-2.2 2.5.6.7 1.5 1.1 1.8.9.7-.4 9.5 2.8 10.5 3.8.3.4-.5 1-2 1.4-1.4.3-2.6 1-2.6 1.4 0 .8 12.5 5.2 18 6.4 1.4.3 4.3 1 6.5 1.6 5.6 1.4 13.3 3 17.5 3.6 1.9.3 4.6.7 6 1 10.2 1.9 41.8 2.6 52.6 1.1 9.8-1.3 21-4 29.4-6.9 9.2-3.2 28-12.6 28-14 0-.4.5-.8 1.2-.8 1.1 0 9.5-6 15.3-10.9 5.4-4.7 24-23.5 27-27.5 1.7-2.1 4-5 5.2-6.5 1.3-1.4 2.3-2.9 2.3-3.3 0-.4.6-1.3 1.3-2 1.5-1.5 9.8-14.2 11.7-17.8.7-1.4 1.6-2.7 1.9-3 .3-.3 1.3-1.9 2.1-3.5.8-1.7 1.7-3.2 2-3.5.3-.3 1.3-2.2 2.2-4.3l1.8-3.8-2.5-.9c-1.4-.5-3.7-1.3-5-1.6-2.5-.6-3.7-4.4-1.4-4.4.8 0 .8-.5-.1-1.5-.7-.8-2.2-1.5-3.5-1.5-1.2 0-2.5-.3-2.9-.8-.4-.4-1.2-.8-1.7-.8-.5-.1-1-.2-1.1-.4-.2-.1-1-.3-1.8-.5s-5.8-1.5-11-2.9c-5.3-1.4-10.9-2.7-12.5-3-1.7-.2-3-.5-3-.6 0-.1-1.6-.4-3.5-.6-7.3-1-8.5-1.2-8.5-1.4 0-.5-4.9-1-11.7-1.2-4.3-.2-7.8-.5-7.8-.8 0-.5-9.8-.8-10.3-.4z"/></svg>